<svg t="1614146756079" class="icon" viewBox="0 0 1024 1024" version="1.1" xmlns="http://www.w3.org/2000/svg" p-id="2957" width="200" height="200"><path d="M511.9897 0C335.54738 0 192 143.54738 192 319.9897c0 246.840055 281.382943 671.754378 293.366557 689.7218a31.966971 31.966971 0 0 0 53.246286 0C550.596458 991.744078 831.979401 566.829755 831.979401 319.9897 831.979401 143.54738 688.432021 0 511.9897 0z m0 415.98661a95.99691 95.99691 0 1 1 0.031999-192.025819A95.99691 95.99691 0 0 1 511.9897 415.98661z" fill="#F15642" p-id="2958"></path><path d="M511.9897 93.756982V223.99279a95.99691 95.99691 0 1 1 0 191.99382v526.159065c0 19.407375-17.103449 33.966907-36.382829 31.742978a320.693678 320.693678 0 0 1-14.671527-2.047934 1912.786432 1912.786432 0 0 0 24.415214 37.88678 32.046968 32.046968 0 0 0 53.262285-0.015999C550.596458 991.744078 831.979401 566.829755 831.979401 319.9897c0-139.723503-90.013103-258.80767-215.081077-302.326269C565.507978-0.223993 511.9897 39.342734 511.9897 93.756982z" fill="#C44138" p-id="2959"></path><path d="M607.98661 319.9897c0 52.942296-43.054614 95.99691-95.99691 95.99691v63.99794c88.22116 0 159.99485-71.77369 159.99485-159.99485s-71.77369-159.99485-159.99485-159.99485v63.99794c52.942296 0 95.99691 43.054614 95.99691 95.99691z" fill="#F15642" p-id="2960"></path><path d="M511.9897 415.98661c-52.942296 0-95.99691-43.054614-95.99691-95.99691s43.054614-95.99691 95.99691-95.99691v-63.99794c-88.22116 0-159.99485 71.77369-159.99485 159.99485s71.77369 159.99485 159.99485 159.99485v-63.99794z" fill="#C44138" p-id="2961"></path></svg>
