<svg t="1607593765838" class="icon" viewBox="0 0 1024 1024" version="1.1" xmlns="http://www.w3.org/2000/svg" p-id="1454" width="48" height="48"><path d="M147.2 0C102.4 0 65.6 36.8 65.6 81.6v860.8c0 44.8 36.8 81.6 81.6 81.6h731.2c44.8 0 81.6-36.8 81.6-81.6V324.8L657.6 0H147.2z" fill="#379FD3" p-id="1455"></path><path d="M960 326.4v16H755.2s-100.8-20.8-97.6-108.8c0 0 3.2 92.8 96 92.8H960z" fill="#2987C8" p-id="1456"></path><path d="M657.6 0v233.6c0 25.6 17.6 92.8 97.6 92.8H960L657.6 0z" fill="#FFFFFF" opacity=".5" p-id="1457"></path><path d="M540.8 544l-227.2 30.4v214.4c-11.2-3.2-25.6-4.8-40-1.6-32 6.4-52.8 27.2-46.4 46.4 6.4 20.8 36.8 30.4 68.8 24 28.8-4.8 48-22.4 48-40V646.4l166.4-20.8v132.8c-11.2-3.2-25.6-3.2-40 0-33.6 6.4-54.4 27.2-48 46.4 6.4 19.2 36.8 30.4 70.4 24 28.8-6.4 49.6-24 48-41.6V544z" fill="#FFFFFF" p-id="1458"></path></svg>
