<svg t="1607593752433" class="icon" viewBox="0 0 1024 1024" version="1.1" xmlns="http://www.w3.org/2000/svg" p-id="1306" width="48" height="48"><path d="M145.6 0C100.8 0 64 36.8 64 81.6v860.8C64 987.2 100.8 1024 145.6 1024h732.8c44.8 0 81.6-36.8 81.6-81.6V324.8L657.6 0h-512z" fill="#3C8CEA" p-id="1307"></path><path d="M225.6 598.4h345.6v33.6H225.6z m0 76.8h345.6v33.6H225.6z m0 76.8h345.6v33.6H225.6z m0 76.8h196.8v33.6H225.6z" fill="#FFFFFF" p-id="1308"></path><path d="M960 326.4v16H755.2s-102.4-20.8-99.2-107.2c0 0 3.2 91.2 96 91.2h208z" fill="#2D6FE4" p-id="1309"></path><path d="M657.6 0v233.6c0 25.6 17.6 92.8 97.6 92.8H960L657.6 0z" fill="#FFFFFF" opacity=".5" p-id="1310"></path></svg>
